<svg width="16" height="16" viewBox="0 0 16 16" fill="none" xmlns="http://www.w3.org/2000/svg">
<g id="message-chat-square" clip-path="url(#clip0_5915_24236)">
<path id="Icon" d="M6.66671 9.99992L4.61654 12.0757C4.33056 12.3653 4.18758 12.51 4.06468 12.5202C3.95805 12.5291 3.85365 12.4862 3.78401 12.405C3.70374 12.3114 3.70374 12.1079 3.70374 11.7009V10.661C3.70374 10.2959 3.40476 10.0317 3.04351 9.9788V9.9788C2.1692 9.85073 1.48256 9.16409 1.35449 8.28978C1.33337 8.14562 1.33337 7.9736 1.33337 7.62955V4.53325C1.33337 3.41315 1.33337 2.85309 1.55136 2.42527C1.74311 2.04895 2.04907 1.74299 2.42539 1.55124C2.85322 1.33325 3.41327 1.33325 4.53337 1.33325H9.46671C10.5868 1.33325 11.1469 1.33325 11.5747 1.55124C11.951 1.74299 12.257 2.04895 12.4487 2.42527C12.6667 2.85309 12.6667 3.41315 12.6667 4.53325V7.33325M12.6667 14.6666L11.2158 13.6578C11.0118 13.516 10.9098 13.4451 10.7988 13.3949C10.7003 13.3503 10.5968 13.3178 10.4904 13.2982C10.3706 13.2761 10.2464 13.2761 9.99799 13.2761H8.80004C8.0533 13.2761 7.67994 13.2761 7.39472 13.1308C7.14384 13.003 6.93986 12.799 6.81203 12.5481C6.66671 12.2629 6.66671 11.8895 6.66671 11.1428V9.46659C6.66671 8.71985 6.66671 8.34648 6.81203 8.06126C6.93986 7.81038 7.14384 7.60641 7.39472 7.47858C7.67994 7.33325 8.0533 7.33325 8.80004 7.33325H12.5334C13.2801 7.33325 13.6535 7.33325 13.9387 7.47858C14.1896 7.60641 14.3936 7.81038 14.5214 8.06126C14.6667 8.34648 14.6667 8.71985 14.6667 9.46658V11.2761C14.6667 11.8974 14.6667 12.208 14.5652 12.453C14.4299 12.7797 14.1703 13.0393 13.8436 13.1746C13.5986 13.2761 13.288 13.2761 12.6667 13.2761V14.6666Z" stroke="#E31B54" stroke-width="1.33333" stroke-linecap="round" stroke-linejoin="round"/>
</g>
<defs>
<clipPath id="clip0_5915_24236">
<rect width="16" height="16" fill="white"/>
</clipPath>
</defs>
</svg>
